<svg width="16" height="16" viewBox="0 0 16 16" fill="none" xmlns="http://www.w3.org/2000/svg">
<g clip-path="url(#clip0_1_534)">
<path opacity="0.5" d="M1 10.4141V15H5.58594L6.58594 16H0V9.41406L1 10.4141ZM9 15L8 16L7 15H9ZM16 16H9.41406L10.4141 15H15V10.4141L16 9.41406V16ZM1 9L0 8L1 7V9ZM16 8L15 9V7L16 8ZM5.58594 1H1V5.58594L0 6.58594V0H6.58594L5.58594 1ZM16 6.58594L15 5.58594V1H10.4141L9.41406 0H16V6.58594ZM9 1H7L8 0L9 1Z" fill="#FFBB00"/>
<path d="M16 8L8 16L0 8L8 0L16 8ZM2.82812 8L8 13.1719L13.1719 8L8 2.82812L2.82812 8ZM11 8L8 11L5 8L8 5L11 8Z" fill="#FFBB00"/>
</g>
<defs>
<clipPath id="clip0_1_534">
<rect width="16" height="16" fill="white"/>
</clipPath>
</defs>
</svg>
