<svg width="16" height="16" viewBox="0 0 16 16" fill="none" xmlns="http://www.w3.org/2000/svg">
<g clip-path="url(#clip0_1_615)">
<path opacity="0.5" d="M5.55176 0C5.25854 0.287185 5.01509 0.624941 4.83691 1H1V15H5.55664L5.82031 15.7031L5.88086 15.8467C5.90547 15.8994 5.93314 15.9502 5.96191 16H0V0H5.55176ZM16 16H10.0391C10.0933 15.9061 10.1407 15.807 10.1797 15.7031L10.4434 15H15V1H11.1631C10.9849 0.624941 10.7415 0.287185 10.4482 0H16V16Z" fill="#FF661A"/>
<path d="M5.80469 6C5.97435 6 6.14056 6.04565 6.29395 6.11816C6.81144 6.36277 7.38962 6.5 8 6.5C8.61038 6.5 9.18856 6.36277 9.70605 6.11816C9.85944 6.04565 10.0256 6 10.1953 6H11C11.5523 6 12 6.44772 12 7V7.6377C12 7.8774 11.9572 8.1154 11.873 8.33984L9.35156 15.0635C9.14036 15.6267 8.60151 16 8 16C7.39849 16 6.85964 15.6267 6.64844 15.0635L4.12695 8.33984C4.04279 8.1154 4.00004 7.8774 4 7.6377V7C4 6.44772 4.44772 6 5 6H5.80469ZM8 0C9.38071 0 10.5 1.11929 10.5 2.5C10.5 3.88071 9.38071 5 8 5C6.61929 5 5.5 3.88071 5.5 2.5C5.5 1.11929 6.61929 0 8 0Z" fill="#FF661A"/>
</g>
<defs>
<clipPath id="clip0_1_615">
<rect width="16" height="16" fill="white"/>
</clipPath>
</defs>
</svg>
