<svg width="16" height="16" viewBox="0 0 16 16" fill="none" xmlns="http://www.w3.org/2000/svg">
<g clip-path="url(#clip0_5_238)">
<path opacity="0.5" d="M6 1H1V15H6V16H0V0H6V1ZM16 16H10V15H15V13H16V16ZM16 3H15V1H10V0H16V3Z" fill="#FFBB00"/>
<path d="M9 16H7V15H9V16ZM9 14H7V13H9V14ZM10 4C10.5523 4 11 4.44772 11 5V7L13.707 4.29297C13.8945 4.10547 14.1489 4.00004 14.4141 4H15V12H14.4141C14.1489 12 13.8945 11.8945 13.707 11.707L11 9V11C11 11.5523 10.5523 12 10 12H4C3.44772 12 3 11.5523 3 11V5C3 4.44772 3.44772 4 4 4H10ZM9 3H7V2H9V3ZM9 1H7V0H9V1Z" fill="#FFBB00"/>
</g>
<defs>
<clipPath id="clip0_5_238">
<rect width="16" height="16" fill="white"/>
</clipPath>
</defs>
</svg>
