<svg width="16" height="16" viewBox="0 0 16 16" fill="none" xmlns="http://www.w3.org/2000/svg">
<g clip-path="url(#clip0_38_889)">
<path opacity="0.5" d="M4 0C3.11262 0 2.31781 0.387596 1.76855 1H1V15H4.34766C5.31271 15.6212 6.51911 16 8 16H0V0H4ZM16 16H8C9.48089 16 10.6873 15.6212 11.6523 15H15V1H14.2314C13.6822 0.387596 12.8874 0 12 0H16V16Z" fill="#C41AE6"/>
<path d="M11 1C12.6569 1 14 2.34315 14 4V8C14 8 14 15 8 15C2 15 2 8 2 8V4C2 2.34315 3.34315 1 5 1H11ZM8 9C7.60603 9 7.21554 9.07775 6.85156 9.22852C6.48774 9.37928 6.15738 9.60043 5.87891 9.87891C5.60043 10.1574 5.37928 10.4877 5.22852 10.8516C5.07775 11.2155 5 11.606 5 12H11C11 11.606 10.9222 11.2155 10.7715 10.8516C10.6207 10.4877 10.3996 10.1574 10.1211 9.87891C9.84262 9.60043 9.51226 9.37928 9.14844 9.22852C8.78446 9.07775 8.39397 9 8 9ZM3 5C3 5.26264 3.05183 5.52297 3.15234 5.76562C3.25285 6.00817 3.40029 6.22841 3.58594 6.41406C3.77159 6.59971 3.99183 6.74715 4.23438 6.84766C4.47703 6.94817 4.73736 7 5 7C5.26264 7 5.52297 6.94817 5.76562 6.84766C6.00817 6.74715 6.22841 6.59971 6.41406 6.41406C6.59971 6.22841 6.74715 6.00817 6.84766 5.76562C6.94817 5.52297 7 5.26264 7 5H3ZM9 5C9 5.53043 9.21086 6.03899 9.58594 6.41406C9.96101 6.78914 10.4696 7 11 7C11.5304 7 12.039 6.78914 12.4141 6.41406C12.7891 6.03899 13 5.53043 13 5H9Z" fill="#C41AE6"/>
</g>
<defs>
<clipPath id="clip0_38_889">
<rect width="16" height="16" fill="white"/>
</clipPath>
</defs>
</svg>
