<svg width="16" height="16" viewBox="0 0 16 16" fill="none" xmlns="http://www.w3.org/2000/svg">
<g clip-path="url(#clip0_14_419)">
<path opacity="0.5" d="M16 16H0V15H16V16ZM6.42676 0C6.34646 0.103632 6.27331 0.217052 6.21094 0.341797L5.88184 1H1V9.88184C1 10.1883 0.826816 10.4684 0.552734 10.6055C0.351954 10.7059 0.167218 10.8289 0 10.9697V0H6.42676ZM16 10.9697C15.8328 10.8289 15.648 10.7059 15.4473 10.6055C15.1732 10.4684 15 10.1883 15 9.88184V1H10.1182L9.78906 0.341797C9.72669 0.217052 9.65354 0.103632 9.57324 0H16V10.9697Z" fill="#AD661F"/>
<path d="M14.1553 10.6162C14.3227 10.9931 14.6176 11.3087 15 11.4999L15.3164 11.6582C15.7351 11.8675 15.9999 12.2956 16 12.7636C16 13.4463 15.4463 13.9999 14.7637 13.9999H1.23633C0.553667 13.9999 0 13.4463 0 12.7636C0.000117522 12.2956 0.264927 11.8675 0.683594 11.6582L1 11.4999C1.04262 11.4786 1.08364 11.4549 1.12402 11.4306L14.1553 10.6162ZM12.2148 6.73725C12.3688 7.02406 12.5997 7.26801 12.8877 7.43843L13.1123 7.56147C13.6597 7.88532 14 8.47581 14 9.11811V9.62397L1.92969 10.3779C1.97507 10.2188 2 10.0522 2 9.88178V9.11811C2 8.47581 2.3403 7.88532 2.8877 7.56147L3.1123 7.43843C3.18647 7.39454 3.25701 7.34606 3.32324 7.29292L12.2148 6.73725ZM10.0303 2.87397C10.1915 3.04656 10.3827 3.1908 10.5967 3.2978L10.8945 3.44721C11.5721 3.78601 12 4.47876 12 5.23628V5.74897L3.96094 6.25093C3.98595 6.13091 4 6.00735 4 5.88178V5.23628C4 4.47876 4.42795 3.78601 5.10547 3.44721L5.40332 3.2978C5.49106 3.25393 5.57463 3.20309 5.6543 3.14741L10.0303 2.87397ZM7.10547 0.789011C7.47399 0.0519625 8.52601 0.0519625 8.89453 0.789011L9.4541 1.90718L6.45117 2.09565L7.10547 0.789011Z" fill="#AD661F"/>
</g>
<defs>
<clipPath id="clip0_14_419">
<rect width="16" height="16" fill="white"/>
</clipPath>
</defs>
</svg>
