<svg width="16" height="16" viewBox="0 0 16 16" fill="none" xmlns="http://www.w3.org/2000/svg">
<g clip-path="url(#clip0_1_506)">
<path opacity="0.5" d="M0 12.8721C0.282024 13.3808 0.617987 13.855 1 14.2881V15H1.71094C2.14398 15.382 2.61826 15.7179 3.12695 16H0V12.8721ZM16 16H14V15H15V12.4629C15.3766 12.2449 15.714 11.9679 16 11.6436V16ZM3.12695 0C2.61826 0.282058 2.14398 0.617973 1.71094 1H1V1.71094C0.617973 2.14398 0.282058 2.61826 0 3.12695V0H3.12695ZM16 3.12695C15.7179 2.61826 15.382 2.14398 15 1.71094V1H14.2891C13.856 0.617973 13.3817 0.282058 12.873 0H16V3.12695Z" fill="#ED5EBE"/>
<path d="M9 0C12.866 0 16 3.13401 16 7V9C16 10.6569 14.6569 12 13 12H7C5.34315 12 4 10.6569 4 9V7C4 5.34315 5.34315 4 7 4H9C10.6569 4 12 5.34315 12 7V10H13C13.5523 10 14 9.55229 14 9V7C14 4.23858 11.7614 2 9 2H7C4.23858 2 2 4.23858 2 7V9C2 11.7614 4.23858 14 7 14H13V16H7C3.13401 16 0 12.866 0 9V7C0 3.13401 3.13401 0 7 0H9ZM7 6C6.44772 6 6 6.44772 6 7V9C6 9.55229 6.44772 10 7 10H10V7C10 6.44772 9.55229 6 9 6H7Z" fill="#ED5EBE"/>
</g>
<defs>
<clipPath id="clip0_1_506">
<rect width="16" height="16" fill="white"/>
</clipPath>
</defs>
</svg>
