<svg width="16" height="16" viewBox="0 0 16 16" fill="none" xmlns="http://www.w3.org/2000/svg">
<g clip-path="url(#clip0_6_271)">
<path opacity="0.5" d="M7.38184 1H1V15H4.01953C4.30668 15.378 4.64557 15.7152 5.02539 16H0V0H7.88184L7.38184 1ZM16 16H10.9746C11.3544 15.7152 11.6933 15.378 11.9805 15H15V1H8.61816L8.11816 0H16V16ZM6.47363 2.84863C6.45002 2.89783 6.42692 2.94863 6.40234 3H3V13H3.10254C3.17502 13.3474 3.28594 13.6818 3.42773 14H2V2H6.88574C6.77916 2.2175 6.63799 2.50622 6.47363 2.84863ZM14 14H12.5723C12.7141 13.6818 12.825 13.3474 12.8975 13H13V3H9.59766C9.57308 2.94863 9.54998 2.89783 9.52637 2.84863C9.36201 2.50622 9.22084 2.2175 9.11426 2H14V14Z" fill="#E63C1A"/>
<path d="M12 12C12 14.1781 10.1781 16 8 16C5.82188 16 4 14.1781 4 12C4 9 8 2 8 2C8 2 12 9 12 12Z" fill="#E63C1A"/>
</g>
<defs>
<clipPath id="clip0_6_271">
<rect width="16" height="16" fill="white"/>
</clipPath>
</defs>
</svg>
