<svg width="16" height="16" viewBox="0 0 16 16" fill="none" xmlns="http://www.w3.org/2000/svg">
<g clip-path="url(#clip0_6_281)">
<path opacity="0.5" d="M0 12.1211C0.281813 12.6671 0.616851 13.1806 1 13.6543V15H2.34473C2.81841 15.3832 3.33203 15.7182 3.87793 16H0V12.1211ZM11.873 15C10.7253 15.6364 9.40533 16 8 16C6.59467 16 5.27468 15.6364 4.12695 15H11.873ZM16 16H12.1221C12.668 15.7182 13.1816 15.3832 13.6553 15H15V13.6543C15.3831 13.1806 15.7182 12.6671 16 12.1211V16ZM1 11.8721C0.363873 10.7245 0 9.40502 0 8C0 6.59467 0.363616 5.27468 1 4.12695V11.8721ZM15 4.12695C15.6364 5.27468 16 6.59467 16 8C16 9.40502 15.6361 10.7245 15 11.8721V4.12695ZM3.87793 0C3.33203 0.281849 2.81841 0.616833 2.34473 1H1V2.34473C0.616833 2.81841 0.281849 3.33203 0 3.87793V0H3.87793ZM16 3.87793C15.7182 3.33203 15.3832 2.81841 15 2.34473V1H13.6553C13.1816 0.616833 12.668 0.281849 12.1221 0H16V3.87793ZM8 0C9.40533 0 10.7253 0.363616 11.873 1H4.12695C5.27468 0.363616 6.59467 0 8 0Z" fill="#A3C0C2"/>
<path d="M8 0C12.4183 0 16 3.58172 16 8C16 12.4183 12.4183 16 8 16C3.58172 16 0 12.4183 0 8C0 3.58172 3.58172 0 8 0ZM4 8C4 10.0517 4.52179 11.8618 5.3125 13.127C5.79913 13.9055 6.35184 14.4293 6.91504 14.7207C6.36459 13.2956 6 10.818 6 8H4ZM10 8C10 10.8182 9.63451 13.2956 9.08398 14.7207C9.64745 14.4293 10.2006 13.9059 10.6875 13.127C11.4782 11.8618 12 10.0517 12 8H10ZM7 8C7 10.1518 7.2188 12.0665 7.55566 13.4141C7.69773 13.9823 7.85483 14.4095 8 14.7021C8.14517 14.4095 8.30227 13.9823 8.44434 13.4141C8.7812 12.0665 9 10.1518 9 8H7ZM1 8C1 10.7535 2.59053 13.1344 4.90234 14.2773C3.7444 12.8122 3 10.5455 3 8H1ZM13 8C13 10.5457 12.2548 12.8122 11.0967 14.2773C13.4089 13.1345 15 10.7538 15 8H13ZM4.90234 1.72168C2.87544 2.72364 1.4045 4.67778 1.07227 7H3.04004C3.20645 4.86502 3.89822 2.99192 4.90234 1.72168ZM6.91504 1.27832C6.3517 1.56971 5.79925 2.09428 5.3125 2.87305C4.65301 3.92822 4.18259 5.36266 4.04395 7H6.01758C6.09237 4.60116 6.43057 2.53209 6.91504 1.27832ZM8 1.29688C7.85472 1.5895 7.69786 2.01716 7.55566 2.58594C7.27198 3.7208 7.07364 5.25785 7.01758 7H8.98242C8.92636 5.25785 8.72802 3.7208 8.44434 2.58594C8.30214 2.01716 8.14528 1.5895 8 1.29688ZM9.08398 1.27832C9.56852 2.53206 9.90763 4.60095 9.98242 7H11.9561C11.8174 5.36266 11.347 3.92822 10.6875 2.87305C10.2005 2.09392 9.64759 1.56963 9.08398 1.27832ZM11.0967 1.72168C12.101 2.99193 12.7935 4.86475 12.96 7H14.9277C14.5955 4.67748 13.124 2.72353 11.0967 1.72168Z" fill="#A3C0C2"/>
</g>
<defs>
<clipPath id="clip0_6_281">
<rect width="16" height="16" fill="white"/>
</clipPath>
</defs>
</svg>
