<svg width="16" height="16" viewBox="0 0 16 16" fill="none" xmlns="http://www.w3.org/2000/svg">
<g clip-path="url(#clip0_7_309)">
<path opacity="0.5" d="M1 10.2803V12.0654L0.77832 12.4365L0.376953 13.1055L1 13.7285V15H2.27148L2.34277 15.0713L2.89453 15.624L3.56445 15.2217L3.93359 15H5.71875L5.96973 16H0V10.0303L1 10.2803ZM16 16H10.0312L10.2803 15H12.0664L12.4355 15.2217L13.1055 15.624L13.6572 15.0713L13.7285 15H15V13.7285L15.0713 13.6572L15.624 13.1055L15.2217 12.4355L15 12.0654V10.2793L16 10.0303V16ZM5.71875 1H3.93457L3.56445 0.77832L2.89453 0.376953L2.27148 1H1V2.27148L0.376953 2.89453L0.77832 3.56445L1 3.93359V5.71777L0 5.96875V0H5.96973L5.71875 1ZM16 5.96875L15 5.71875V3.93262L15.2217 3.56445L15.624 2.89453L15.0713 2.34277L15 2.27148V1H13.7285L13.1055 0.376953L12.4365 0.77832L12.0664 1H10.2803L10.0312 0H16V5.96875Z" fill="#22C322"/>
<path d="M9.5498 2.20215C10.0639 2.33922 10.55 2.54428 11 2.80469L12.9502 1.63574L14.3643 3.0498L13.1943 4.99805C13.4549 5.44789 13.6586 5.93427 13.7959 6.44824L16 7V9L13.7969 9.5498C13.6597 10.0643 13.455 10.5507 13.1943 11.001L14.3643 12.9502L12.9502 14.3643L11.001 13.1943C10.5507 13.455 10.0643 13.6597 9.5498 13.7969L9 16H7L6.44824 13.7959C5.93427 13.6586 5.44789 13.4549 4.99805 13.1943L3.0498 14.3643L1.63574 12.9502L2.80469 11C2.54428 10.55 2.33922 10.0639 2.20215 9.5498L0 9V7L2.20312 6.44824C2.34034 5.93434 2.54423 5.44784 2.80469 4.99805L1.63574 3.0498L3.0498 1.63574L4.99805 2.80469C5.44784 2.54423 5.93434 2.34034 6.44824 2.20312L7 0H9L9.5498 2.20215ZM8 4C5.79086 4 4 5.79086 4 8C4 10.2091 5.79086 12 8 12C10.2091 12 12 10.2091 12 8C12 5.79086 10.2091 4 8 4ZM8 6C9.10457 6 10 6.89543 10 8C10 9.10457 9.10457 10 8 10C6.89543 10 6 9.10457 6 8C6 6.89543 6.89543 6 8 6Z" fill="#22C322"/>
</g>
<defs>
<clipPath id="clip0_7_309">
<rect width="16" height="16" fill="white"/>
</clipPath>
</defs>
</svg>
