<svg width="16" height="16" viewBox="0 0 16 16" fill="none" xmlns="http://www.w3.org/2000/svg">
<g clip-path="url(#clip0_18_284)">
<path opacity="0.5" d="M0 10.6426C0.286147 10.9668 0.623354 11.2449 1 11.4629V15H9.54004C9.75855 15.3774 10.0371 15.7146 10.3623 16H0V10.6426ZM16 10.3604C15.7145 10.0352 15.377 9.75685 15 9.53809V6.46094C15.377 6.24211 15.7144 5.96369 16 5.63867V10.3604ZM10.3613 0C10.0364 0.285548 9.75831 0.622786 9.54004 1H1V4.53613C0.62355 4.75396 0.28602 5.03146 0 5.35547V0H10.3613Z" fill="#22C322"/>
<path d="M13 10C14.6569 10 16 11.3431 16 13C16 14.6569 14.6569 16 13 16C11.6941 16 10.5859 15.1647 10.1738 14H2V12H10.1738C10.5859 10.8353 11.6941 10 13 10ZM13 12C12.4477 12 12 12.4477 12 13C12 13.5523 12.4477 14 13 14C13.5523 14 14 13.5523 14 13C14 12.4477 13.5523 12 13 12ZM3 5C4.30585 5 5.41406 5.83532 5.82617 7H14V9H5.82617C5.41406 10.1647 4.30585 11 3 11C1.34315 11 0 9.65685 0 8C0 6.34315 1.34315 5 3 5ZM3 7C2.44772 7 2 7.44772 2 8C2 8.55228 2.44772 9 3 9C3.55228 9 4 8.55228 4 8C4 7.44772 3.55228 7 3 7ZM13 0C14.6569 0 16 1.34315 16 3C16 4.65685 14.6569 6 13 6C11.6941 6 10.5859 5.16468 10.1738 4H2V2H10.1738C10.5859 0.835321 11.6941 0 13 0ZM13 2C12.4477 2 12 2.44772 12 3C12 3.55228 12.4477 4 13 4C13.5523 4 14 3.55228 14 3C14 2.44772 13.5523 2 13 2Z" fill="#22C322"/>
</g>
<defs>
<clipPath id="clip0_18_284">
<rect width="16" height="16" fill="white"/>
</clipPath>
</defs>
</svg>
