<svg width="16" height="16" viewBox="0 0 16 16" fill="none" xmlns="http://www.w3.org/2000/svg">
<g clip-path="url(#clip0_24_245)">
<path opacity="0.5" d="M16 16H0V15H15V12.8955C15.3833 12.504 15.719 12.0704 16 11.6025V16ZM16 4.39648C15.7189 3.92869 15.3833 3.49491 15 3.10352V1H8.9668L8.36621 0H16V4.39648Z" fill="#ED5EBE"/>
<path d="M6 -3V-2L8.81641 2.69434C8.93641 2.89435 8.99999 3.12319 9 3.35645C9 3.71184 8.71184 3.99999 8.35645 4H6.48242C6.3045 4.00031 6.21589 4.2159 6.3418 4.3418L6.79297 4.79297C6.92553 4.92558 7.00001 5.10546 7 5.29297C6.99996 5.68343 6.68342 5.99995 6.29297 6H5.82812C5.29779 6.00007 4.78907 6.21092 4.41406 6.58594L3.70703 7.29297C3.3166 7.68348 3.3166 8.31652 3.70703 8.70703L4.41406 9.41406C4.78907 9.78908 5.29779 9.99993 5.82812 10H6C6.55226 10 6.99999 10.4477 7 11V12C7 13.1046 6.10456 14 5 14H-1V-3H6ZM10 2C10.7879 2 11.568 2.15552 12.2959 2.45703C13.0239 2.75856 13.685 3.20066 14.2422 3.75781C14.7993 4.31496 15.2414 4.97615 15.543 5.7041C15.8445 6.43204 16 7.21209 16 8C16 8.78791 15.8445 9.56796 15.543 10.2959C15.2414 11.0239 14.7993 11.685 14.2422 12.2422C13.685 12.7993 13.0239 13.2414 12.2959 13.543C11.568 13.8445 10.7879 14 10 14V12C10.5252 12 11.0451 11.8962 11.5303 11.6953C12.0156 11.4943 12.4567 11.1996 12.8281 10.8281C13.1996 10.4567 13.4943 10.0156 13.6953 9.53027C13.8962 9.04506 14 8.52517 14 8C14 7.47483 13.8962 6.95494 13.6953 6.46973C13.4943 5.98442 13.1996 5.54331 12.8281 5.17188C12.4567 4.80044 12.0156 4.50571 11.5303 4.30469C11.0451 4.10376 10.5252 4 10 4V2ZM10 6C10.2626 6 10.523 6.05183 10.7656 6.15234C11.0082 6.25285 11.2284 6.40029 11.4141 6.58594C11.5997 6.77159 11.7471 6.99183 11.8477 7.23438C11.9482 7.47703 12 7.73736 12 8C12 8.26264 11.9482 8.52297 11.8477 8.76562C11.7471 9.00817 11.5997 9.22841 11.4141 9.41406C11.2284 9.59971 11.0082 9.74715 10.7656 9.84766C10.523 9.94817 10.2626 10 10 10V6Z" fill="#ED5EBE"/>
</g>
<defs>
<clipPath id="clip0_24_245">
<rect width="16" height="16" fill="white"/>
</clipPath>
</defs>
</svg>
