<svg width="16" height="16" viewBox="0 0 16 16" fill="none" xmlns="http://www.w3.org/2000/svg">
<g clip-path="url(#clip0_6_270)">
<path opacity="0.5" d="M5.38184 1H1V9.7627L0.185547 11.3916L1 11.2246V15H2.41211L2.12598 15.5146L2.76953 16H0V0H5.88184L5.38184 1ZM16 16H4.41406L5.41406 15H15V5.41406L16 4.41406V16ZM3 13H3.52246L2.9668 14H2V11.0195L2.2002 10.9795L3 10.8154V13ZM14 14H6.41406L7.41406 13H13V7.41406L14 6.41406V14ZM4.38184 3H3V5.76367L2 7.76367V2H4.88184L4.38184 3ZM14 3.98438L13.833 4.01367L13 4.1543V3H11.248L11.8955 2H14V3.98438ZM16 3.64551L15 3.81445V1H12.543L12.8389 0.543945L13.1914 0H16V3.64551Z" fill="#00ADCC"/>
<path d="M12 0H7L2 10L6.88675 9L3 16L14 5L8.11325 6L12 0Z" fill="#00ADCC"/>
</g>
<defs>
<clipPath id="clip0_6_270">
<rect width="16" height="16" fill="white"/>
</clipPath>
</defs>
</svg>
