<svg width="16" height="16" viewBox="0 0 16 16" fill="none" xmlns="http://www.w3.org/2000/svg">
<g clip-path="url(#clip0_14_575)">
<path opacity="0.5" d="M4.58594 0L3.58594 1H1V15H3.58594L4.58594 16H0V0H4.58594ZM16 16H11.4141L12.4141 15H15V1H12.4141L11.4141 0H16V16Z" fill="#3399FF"/>
<path d="M10.5859 1C10.8511 1.00004 11.1055 1.10547 11.293 1.29297L13.707 3.70703C13.8945 3.89453 14 4.1489 14 4.41406V11.5859C14 11.8511 13.8945 12.1055 13.707 12.293L11.293 14.707C11.1055 14.8945 10.8511 15 10.5859 15H5.41406C5.1489 15 4.89453 14.8945 4.70703 14.707L2.29297 12.293C2.10547 12.1055 2.00004 11.8511 2 11.5859V4.41406C2.00004 4.1489 2.10547 3.89453 2.29297 3.70703L4.70703 1.29297C4.89453 1.10547 5.1489 1.00004 5.41406 1H10.5859ZM7 4V7H4V9H7V12H9V9H12V7H9V4H7Z" fill="#3399FF"/>
</g>
<defs>
<clipPath id="clip0_14_575">
<rect width="16" height="16" fill="white"/>
</clipPath>
</defs>
</svg>
