<svg width="16" height="16" viewBox="0 0 16 16" fill="none" xmlns="http://www.w3.org/2000/svg">
<g clip-path="url(#clip0_3_148)">
<path opacity="0.5" d="M16 16H13.0859C13.2858 15.8002 13.4573 15.566 13.5928 15.29C13.6387 15.1964 13.678 15.0992 13.7148 15H15V1H1V15H2.28613C2.32298 15.0992 2.36227 15.1964 2.4082 15.29C2.54366 15.5661 2.71523 15.8002 2.91504 16H0V0H16V16Z" fill="#3399FF"/>
<path d="M6.87473 3C6.9534 3 7.02748 3.03703 7.0747 3.09995L7.79413 4.05871C7.86122 4.14812 7.99969 4.11178 7.99969 4C7.99969 4.1114 8.13787 4.14766 8.20476 4.05858L8.92469 3.09988C8.97191 3.037 9.04596 3 9.1246 3H10.4996C10.7056 3 10.8232 3.23524 10.6995 3.40004L8.9778 5.69463C8.90733 5.78855 8.91144 5.91902 8.99017 6.00613C10.4475 7.61867 12.9997 9.32484 12.9997 13L12.9968 13.2725C12.9199 16 11.6326 16 7.99969 16C4.36707 16 3.08044 15.9999 3.0036 13.2725L2.99969 13C2.99969 9.32541 5.55082 7.61846 7.00824 6.00611C7.08697 5.919 7.0911 5.78855 7.02066 5.69461L5.29969 3.4C5.17609 3.23519 5.29368 3 5.49969 3H6.87473Z" fill="#3399FF"/>
</g>
<defs>
<clipPath id="clip0_3_148">
<rect width="16" height="16" fill="white"/>
</clipPath>
</defs>
</svg>
