<svg width="16" height="16" viewBox="0 0 16 16" fill="none" xmlns="http://www.w3.org/2000/svg">
<g clip-path="url(#clip0_4_179)">
<path opacity="0.5" d="M0 10H1V15H6V16H0V10ZM16 16H10V15H15V10H16V16ZM6 0V1H1V6H0V0H6ZM16 6H15V1H10V0H16V6Z" fill="#47B4EB"/>
<path d="M8.75 2.04785C11.4639 2.38635 13.6126 4.53616 13.9512 7.25H16V8.75H13.9512C13.6126 11.4638 11.4638 13.6126 8.75 13.9512V16H7.25V13.9512C4.5362 13.6126 2.38737 11.4638 2.04883 8.75H0V7.25H2.04883C2.38738 4.53616 4.53614 2.38635 7.25 2.04785V0H8.75V2.04785ZM8.75 5H7.25V3.5625C5.36571 3.87864 3.87969 5.36573 3.56348 7.25H5V8.75H3.56348C3.87968 10.6342 5.36579 12.1203 7.25 12.4365V11H8.75V12.4365C10.6342 12.1203 12.1203 10.6342 12.4365 8.75H11V7.25H12.4365C12.1203 5.36573 10.6343 3.87864 8.75 3.5625V5ZM8 7C8.55228 7 9 7.44772 9 8C9 8.55228 8.55228 9 8 9C7.44772 9 7 8.55228 7 8C7 7.44772 7.44772 7 8 7Z" fill="#47B4EB"/>
</g>
<defs>
<clipPath id="clip0_4_179">
<rect width="16" height="16" fill="white"/>
</clipPath>
</defs>
</svg>
