<svg width="16" height="16" viewBox="0 0 16 16" fill="none" xmlns="http://www.w3.org/2000/svg">
<g clip-path="url(#clip0_6_253)">
<path opacity="0.5" d="M1 9.38086V15H6.61816L6.94727 16H0V9.05273L1 9.38086ZM8.3291 15L8 16L7.6709 15H8.3291ZM16 16H9.05273L9.38184 15H15V9.38086L16 9.05273V16ZM1 8.32812L0 8L1 7.6709V8.32812ZM16 8L15 8.32812V7.6709L16 8ZM6.61816 1H1V6.61719L0 6.94629V0H6.94727L6.61816 1ZM16 6.94629L15 6.61816V1H9.38184L9.05273 0H16V6.94629ZM8.3291 1H7.6709L8 0L8.3291 1Z" fill="#F8BE00"/>
<path d="M8 0L9.9799 6.0201L16 8L9.9799 9.9799L8 16L6.0201 9.9799L0 8L6.0201 6.0201L8 0Z" fill="#F8BE00"/>
<mask id="path-3-inside-1_6_253" fill="white">
<path d="M8 3L8.57403 6.61418L11.5355 4.46447L9.38582 7.42597L13 8L9.38582 8.57403L11.5355 11.5355L8.57403 9.38582L8 13L7.42597 9.38582L4.46447 11.5355L6.61418 8.57403L3 8L6.61418 7.42597L4.46447 4.46447L7.42597 6.61418L8 3Z"/>
</mask>
<path d="M8 3L9.97524 2.68628H6.02476L8 3ZM8.57403 6.61418L6.59878 6.9279L7.11023 10.1481L9.7489 8.23272L8.57403 6.61418ZM11.5355 4.46447L13.1541 5.63934L10.3607 2.84593L11.5355 4.46447ZM9.38582 7.42597L7.76728 6.2511L5.85191 8.88977L9.0721 9.40122L9.38582 7.42597ZM13 8L13.3137 9.97524V6.02476L13 8ZM9.38582 8.57403L9.0721 6.59878L5.85191 7.11023L7.76728 9.7489L9.38582 8.57403ZM11.5355 11.5355L10.3607 13.1541L13.1541 10.3607L11.5355 11.5355ZM8.57403 9.38582L9.7489 7.76728L7.11023 5.85191L6.59878 9.0721L8.57403 9.38582ZM8 13L6.02476 13.3137H9.97524L8 13ZM7.42597 9.38582L9.40122 9.0721L8.88977 5.85191L6.2511 7.76728L7.42597 9.38582ZM4.46447 11.5355L2.84593 10.3607L5.63934 13.1541L4.46447 11.5355ZM6.61418 8.57403L8.23272 9.7489L10.1481 7.11023L6.9279 6.59878L6.61418 8.57403ZM3 8L2.68628 6.02476V9.97524L3 8ZM6.61418 7.42597L6.9279 9.40122L10.1481 8.88977L8.23272 6.2511L6.61418 7.42597ZM4.46447 4.46447L5.63934 2.84593L2.84593 5.63934L4.46447 4.46447ZM7.42597 6.61418L6.2511 8.23272L8.88977 10.1481L9.40122 6.9279L7.42597 6.61418ZM8 3L6.02476 3.31372L6.59878 6.9279L8.57403 6.61418L10.5493 6.30046L9.97524 2.68628L8 3ZM8.57403 6.61418L9.7489 8.23272L12.7104 6.08301L11.5355 4.46447L10.3607 2.84593L7.39915 4.99564L8.57403 6.61418ZM11.5355 4.46447L9.91699 3.28959L7.76728 6.2511L9.38582 7.42597L11.0044 8.60085L13.1541 5.63934L11.5355 4.46447ZM9.38582 7.42597L9.0721 9.40122L12.6863 9.97524L13 8L13.3137 6.02476L9.69954 5.45073L9.38582 7.42597ZM13 8L12.6863 6.02476L9.0721 6.59878L9.38582 8.57403L9.69954 10.5493L13.3137 9.97524L13 8ZM9.38582 8.57403L7.76728 9.7489L9.91699 12.7104L11.5355 11.5355L13.1541 10.3607L11.0044 7.39915L9.38582 8.57403ZM11.5355 11.5355L12.7104 9.91699L9.7489 7.76728L8.57403 9.38582L7.39915 11.0044L10.3607 13.1541L11.5355 11.5355ZM8.57403 9.38582L6.59878 9.0721L6.02476 12.6863L8 13L9.97524 13.3137L10.5493 9.69954L8.57403 9.38582ZM8 13L9.97524 12.6863L9.40122 9.0721L7.42597 9.38582L5.45073 9.69954L6.02476 13.3137L8 13ZM7.42597 9.38582L6.2511 7.76728L3.28959 9.91699L4.46447 11.5355L5.63934 13.1541L8.60085 11.0044L7.42597 9.38582ZM4.46447 11.5355L6.08301 12.7104L8.23272 9.7489L6.61418 8.57403L4.99564 7.39915L2.84593 10.3607L4.46447 11.5355ZM6.61418 8.57403L6.9279 6.59878L3.31372 6.02476L3 8L2.68628 9.97524L6.30046 10.5493L6.61418 8.57403ZM3 8L3.31372 9.97524L6.9279 9.40122L6.61418 7.42597L6.30046 5.45073L2.68628 6.02476L3 8ZM6.61418 7.42597L8.23272 6.2511L6.08301 3.28959L4.46447 4.46447L2.84593 5.63934L4.99564 8.60085L6.61418 7.42597ZM4.46447 4.46447L3.28959 6.08301L6.2511 8.23272L7.42597 6.61418L8.60085 4.99564L5.63934 2.84593L4.46447 4.46447ZM7.42597 6.61418L9.40122 6.9279L9.97524 3.31372L8 3L6.02476 2.68628L5.45073 6.30046L7.42597 6.61418Z" fill="white" mask="url(#path-3-inside-1_6_253)"/>
<circle opacity="0.5" cx="8" cy="8" r="5.5" stroke="#F8BE00"/>
</g>
<defs>
<clipPath id="clip0_6_253">
<rect width="16" height="16" fill="white"/>
</clipPath>
</defs>
</svg>
