<svg width="16" height="16" viewBox="0 0 16 16" fill="none" xmlns="http://www.w3.org/2000/svg">
<g clip-path="url(#clip0_2_124)">
<path opacity="0.5" d="M4.68555 0C4.35432 0.219639 4.043 0.47262 3.75781 0.757812C3.67926 0.836366 3.60398 0.917655 3.53027 1H1V15H5.51465C5.5418 15.2284 5.60755 15.4513 5.71094 15.6582L5.88184 16H0V0H4.68555ZM16 16H10.1182L10.2891 15.6582L10.3809 15.4443C10.4328 15.3008 10.4664 15.1515 10.4844 15H15V1H12.4697C12.396 0.917655 12.3207 0.836366 12.2422 0.757812C11.957 0.47262 11.6457 0.219639 11.3145 0H16V16Z" fill="#F8BE00"/>
<path d="M9.25 13C9.38807 13 9.5 13.1119 9.5 13.25V14.7637C9.5 14.9188 9.46389 15.0721 9.39453 15.2109L9.06934 15.8613C9.02702 15.946 8.94031 15.9999 8.8457 16H7.1543C7.05969 15.9999 6.97298 15.946 6.93066 15.8613L6.60547 15.2109C6.53611 15.0721 6.5 14.9188 6.5 14.7637V13.25C6.5 13.1119 6.61193 13 6.75 13H9.25ZM8 0C9.32608 1.00116e-07 10.5975 0.527162 11.5352 1.46484C12.4728 2.40253 13 3.67392 13 5C13 6.53374 12 8 11 9C10.0914 9.90864 10.0086 9.99201 10.001 11.5C9.9994 11.776 9.77602 12 9.5 12H6.5C6.22397 12 6.00078 11.776 6.00098 11.5C6.00302 10.0031 5.96953 9.96953 5 9C3.93263 7.93263 3 6.53374 3 5C3 3.67392 3.52716 2.40253 4.46484 1.46484C5.40253 0.527162 6.67392 -1.44934e-10 8 0Z" fill="#F8BE00"/>
<path d="M11 5C11 4.60603 10.9224 4.21593 10.7716 3.85195C10.6209 3.48797 10.3999 3.15726 10.1213 2.87868C9.84274 2.6001 9.51203 2.37913 9.14805 2.22836C8.78407 2.0776 8.39397 2 8 2C7.60603 2 7.21593 2.0776 6.85195 2.22836C6.48797 2.37913 6.15726 2.6001 5.87868 2.87868C5.6001 3.15726 5.37913 3.48797 5.22836 3.85195C5.0776 4.21593 5 4.60603 5 5L8 5H11Z" fill="white"/>
</g>
<defs>
<clipPath id="clip0_2_124">
<rect width="16" height="16" fill="white"/>
</clipPath>
</defs>
</svg>
