<svg width="16" height="16" viewBox="0 0 16 16" fill="none" xmlns="http://www.w3.org/2000/svg">
<g clip-path="url(#clip0_1_597)">
<path opacity="0.5" d="M0 12.5801L0.503906 12.8682L1 13.1514V15H4.23438L5.98438 16H0V12.5801ZM16 16H10.0156L11.7656 15H15V13.1514L15.4961 12.8682L16 12.5801V16ZM4.23438 1H1V2.84766L0.503906 3.13184L0 3.41992V0H5.98438L4.23438 1ZM16 3.41992L15.4961 3.13184L15 2.84766V1H11.7656L10.0156 0H16V3.41992Z" fill="#00B3FF"/>
<path d="M15 4V12L8 16L1 12V4L8 0L15 4ZM3 5.16016V10.8389L8 13.6963L13 10.8389V5.16016L8 2.30273L3 5.16016ZM9.73242 7V9L8 10L6.26758 9V7L8 6L9.73242 7Z" fill="#00B2FF"/>
</g>
<defs>
<clipPath id="clip0_1_597">
<rect width="16" height="16" fill="white"/>
</clipPath>
</defs>
</svg>
