<svg width="16" height="16" viewBox="0 0 16 16" fill="none" xmlns="http://www.w3.org/2000/svg">
<g clip-path="url(#clip0_1_473)">
<path opacity="0.5" d="M6 1H1V15H6V16H0V0H6V1ZM16 16H10V15H15V1H10V0H16V16Z" fill="#FF5656"/>
<path d="M9 2H12V4H9V7H10C11.6569 7 13 8.34315 13 10V11C13 12.6569 11.6569 14 10 14H9V16H7V14H4V12H7V9H6C4.34315 9 3 7.65685 3 6V5C3 3.34315 4.34315 2 6 2H7V0H9V2ZM9 12H10C10.5523 12 11 11.5523 11 11V10C11 9.44772 10.5523 9 10 9H9V12ZM6 4C5.44772 4 5 4.44772 5 5V6C5 6.55228 5.44772 7 6 7H7V4H6Z" fill="#FF5656"/>
</g>
<defs>
<clipPath id="clip0_1_473">
<rect width="16" height="16" fill="white"/>
</clipPath>
</defs>
</svg>
