<svg width="16" height="16" viewBox="0 0 16 16" fill="none" xmlns="http://www.w3.org/2000/svg">
<g clip-path="url(#clip0_38_763)">
<path opacity="0.5" d="M1.58594 16H0V14.4141L1.58594 16ZM16 16H5.41504L6.41504 15H15V4.91504L16 3.91504V16ZM11.0859 1H1V9.58594L0 10.5859V0H12.0859L11.0859 1Z" fill="#FF9500"/>
<path d="M4.50275e-07 12L3.10612e-07 13L3 16L4 16L5 15L1 11L4.50275e-07 12Z" fill="#FF9500"/>
<path d="M8.75 4C9.23022 4 9.69077 3.80924 10.0303 3.46967L12.9142 0.585795C13.2893 0.210718 13.798 4.69782e-06 14.3284 9.38367e-06L16 2.41503e-05L16 1.67157C16 2.20201 15.7893 2.71072 15.4142 3.08579L12.5303 5.96967C12.1908 6.30924 12 6.76978 12 7.25C12 7.73022 11.8092 8.19077 11.4697 8.53033L6 14L2 10L7.46967 4.53033C7.80924 4.19077 8.26979 4 8.75 4Z" fill="#FF9500"/>
</g>
<defs>
<clipPath id="clip0_38_763">
<rect width="16" height="16" fill="white"/>
</clipPath>
</defs>
</svg>
