<svg width="16" height="16" viewBox="0 0 16 16" fill="none" xmlns="http://www.w3.org/2000/svg">
<g clip-path="url(#clip0_1_513)">
<path opacity="0.5" d="M16 16H0V15H16V16ZM6.26758 0L5.69043 1H1V9.12402L0 10.8564V0H6.26758ZM16 10.8564L15 9.12402V1H10.3096L9.73242 0H16V10.8564Z" fill="#5CCC33"/>
<path d="M7.05438 0.659158C7.52953 0.046573 8.46978 0.0466864 8.94501 0.659158L9.03876 0.799783L15.6208 12.2002C16.0824 13.0001 15.5053 13.9998 14.5817 14H1.41766C0.494346 13.9996 -0.0828598 13 0.378601 12.2002L6.96063 0.799783L7.05438 0.659158ZM2.80341 12H13.196L7.99969 2.999L2.80341 12Z" fill="#5CCC33"/>
</g>
<defs>
<clipPath id="clip0_1_513">
<rect width="16" height="16" fill="white"/>
</clipPath>
</defs>
</svg>
