<svg width="16" height="16" viewBox="0 0 16 16" fill="none" xmlns="http://www.w3.org/2000/svg">
<g clip-path="url(#clip0_2_155)">
<path opacity="0.5" d="M0.207031 6.07617C0.446612 6.24434 0.71378 6.38821 1 6.51074V15H5.43848C5.40811 15.0737 5.37916 15.1393 5.34961 15.1953C5.25312 15.3781 5.11488 15.6591 5.04492 16H0V5.91699C0.0680449 5.97261 0.136488 6.02665 0.207031 6.07617ZM16 16H10.9551C10.8851 15.6591 10.7469 15.3781 10.6504 15.1953C10.6208 15.1393 10.5919 15.0737 10.5615 15H15V7.51172C15.3481 7.36234 15.6695 7.18046 15.9482 6.96191C15.9662 6.94786 15.9823 6.93148 16 6.91699V16ZM16 2.64355C15.6928 2.41033 15.348 2.2654 15 2.17383V1H12.7412C12.5178 0.59 12.1719 0.258258 11.7969 0H16V2.64355ZM4.19043 0.00585938C4.12784 0.0017343 4.06432 0 4 0C3.111 0 2.31266 0.38794 1.76465 1H1V1.17188C0.653135 1.26304 0.308534 1.41012 0 1.64453V0H4.19922C4.19631 0.00199363 4.19333 0.0038601 4.19043 0.00585938Z" fill="#FF9500"/>
<path d="M8 0.00012207C10.2091 0.00012207 12 0.895553 12 2.00012C12 2.02246 12.0147 2.04184 12.0367 2.04569C12.6401 2.15133 13.1605 2.43267 13.5138 2.81804C13.6187 2.93244 13.7599 3.011 13.9148 3.02055C15.143 3.09628 16 3.44378 16 5.00012C15.9999 5.879 15.0076 6.62407 13.6283 6.89213C13.3994 6.93664 13.2221 7.12034 13.1649 7.34649C13.0445 7.82304 12.7977 8.26292 12.4443 8.61633L11.3232 9.73743C10.9951 10.0655 10.55 10.2501 10.0859 10.2501H9.25C8.97386 10.2501 8.75 10.474 8.75 10.7501V11.2306C8.95811 12.7984 9.29479 14.7697 9.76562 15.6622C9.88942 15.8968 9.99999 16.149 10 16.4142V16.5001C10 16.7763 9.77614 17.0001 9.5 17.0001H6.5C6.22386 17.0001 6 16.7763 6 16.5001V16.4142C6.00001 16.149 6.11058 15.8968 6.23438 15.6622C6.70521 14.7697 7.04189 12.7984 7.25 11.2306V8.50012C7.25 8.36205 7.13807 8.25012 7 8.25012H5.91406C5.45002 8.25008 5.00491 8.06554 4.67676 7.73743L3.2627 6.32336C3.21972 6.28039 3.17945 6.23526 3.14177 6.18831C3.04029 6.06186 2.89865 5.9692 2.7378 5.94882C1.17151 5.7503 9.98047e-05 4.95499 0 4.00012C0 2.48638 0.810688 2.11565 1.98514 2.02674C2.15687 2.01374 2.30991 1.91706 2.41501 1.78062C2.78063 1.30597 3.35449 1.00012 4 1.00012C4.06945 1.00012 4.13798 1.00399 4.2055 1.01128C4.37272 1.02932 4.54286 0.985991 4.67781 0.885615C5.39596 0.351449 6.61591 0.00012207 8 0.00012207ZM9 5.00012C9 4.9352 8.93994 4.88634 8.8765 4.90013C8.86668 4.90226 8.85685 4.90436 8.84701 4.90643C8.7908 4.91824 8.75 4.96741 8.75 5.02485V8.25012C8.75 8.52626 8.97386 8.75012 9.25 8.75012H10.0859C10.1522 8.75008 10.2159 8.72369 10.2627 8.67688L11.3838 7.55579C11.4204 7.51916 11.4545 7.48047 11.4859 7.43999C11.6664 7.20732 11.4645 6.91678 11.1778 6.84995C9.90041 6.5523 9.00009 5.83722 9 5.00012ZM6.96161 4.85963C6.81331 4.82001 6.65662 4.87112 6.54877 4.98035C6.33677 5.19504 6.05748 5.38495 5.72709 5.54087C5.37531 5.70688 5.24404 6.18362 5.5191 6.45867L5.7373 6.67688C5.78415 6.72369 5.84784 6.75008 5.91406 6.75012H7C7.13245 6.75012 7.25 6.65113 7.25 6.51868V5.22049C7.25 5.04947 7.12683 4.90377 6.96161 4.85963Z" fill="#FF9500"/>
</g>
<defs>
<clipPath id="clip0_2_155">
<rect width="16" height="16" fill="white"/>
</clipPath>
</defs>
</svg>
