<svg width="16" height="16" viewBox="0 0 16 16" fill="none" xmlns="http://www.w3.org/2000/svg">
<g clip-path="url(#clip0_7_307)">
<path opacity="0.5" d="M1 15H9.67188L10.6719 16H0V14.3281L1 13.3281V15ZM16 12.3281V15.6719L15 14.6719V11.3281L16 12.3281ZM16 6.67188L15 5.67188V1H1V7.67188L0 8.67188V0H16V6.67188Z" fill="#8EC322"/>
<path d="M15.207 16.293L13.793 17.707L4.5 8.41406L-1.79297 14.707L-3.20703 13.293L4.5 5.58594L15.207 16.293ZM18.207 10.293L16.793 11.707L11.5 6.41406L9.70703 8.20703L8.29297 6.79297L11.5 3.58594L18.207 10.293Z" fill="#8EC322"/>
</g>
<defs>
<clipPath id="clip0_7_307">
<rect width="16" height="16" fill="white"/>
</clipPath>
</defs>
</svg>
