<svg width="16" height="16" viewBox="0 0 16 16" fill="none" xmlns="http://www.w3.org/2000/svg">
<g clip-path="url(#clip0_2_95)">
<circle cx="8" cy="8" r="7.5" stroke="#D74242"/>
<path d="M11.6064 14C10.5531 14.6345 9.31932 15 8 15V14H11.6064ZM8 14H4.39355C4.25913 13.919 4.12834 13.8327 4 13.7432V12H8V14ZM13.7432 12C13.2694 12.6789 12.6789 13.2694 12 13.7432V12H13.7432ZM12 12H8V8H12V12ZM4 12H2.25684C2.16712 11.8714 2.0811 11.7401 2 11.6055V8H4V12ZM15 8C15 9.31902 14.6342 10.5523 14 11.6055V8H15ZM8 8H4V4H8V8ZM13.7432 4C13.8327 4.12834 13.919 4.25913 14 4.39355V8H12V4H13.7432ZM2 8H1C1 6.68068 1.36549 5.44691 2 4.39355V8ZM11.6064 2C11.7407 2.08088 11.8718 2.16642 12 2.25586V4H8V2H11.6064ZM4 4H2.25684C2.73066 3.32096 3.32092 2.72963 4 2.25586V4ZM8 2H4.39355C5.44691 1.36549 6.68068 1 8 1V2Z" fill="#D74242"/>
</g>
<defs>
<clipPath id="clip0_2_95">
<rect width="16" height="16" fill="white"/>
</clipPath>
</defs>
</svg>
