<svg width="16" height="16" viewBox="0 0 16 16" fill="none" xmlns="http://www.w3.org/2000/svg">
<g clip-path="url(#clip0_7_325)">
<circle cx="8" cy="8" r="7.5" stroke="#D74242"/>
<path d="M8 15C7.66036 15 7.32671 14.9735 7 14.9268V13H5V14.3252C4.64946 14.1586 4.31551 13.9633 4 13.7432V12H8V15ZM13.7432 12C13.2694 12.6789 12.6789 13.2694 12 13.7432V12H13.7432ZM12 12H8V8H12V12ZM4 12H2.25684C2.03668 11.6845 1.84136 11.3505 1.6748 11H3V9H1.07227C1.02553 8.67334 1 8.33959 1 8H4V12ZM9 11H11V9H9V11ZM8 8H4V4H8V8ZM13.7432 4C13.9633 4.31551 14.1586 4.64946 14.3252 5H13V7H14.9277C14.9745 7.32666 15 7.66041 15 8H12V4H13.7432ZM5 7H7V5H5V7ZM8 1C8.33964 1 8.67329 1.02649 9 1.07324V3H11V1.6748C11.3504 1.84128 11.6846 2.03583 12 2.25586V4H8V1ZM4 4H2.25684C2.73066 3.32096 3.32092 2.72963 4 2.25586V4Z" fill="#D74242"/>
</g>
<defs>
<clipPath id="clip0_7_325">
<rect width="16" height="16" fill="white"/>
</clipPath>
</defs>
</svg>
