<svg width="16" height="16" viewBox="0 0 16 16" fill="none" xmlns="http://www.w3.org/2000/svg">
<g clip-path="url(#clip0_11_293)">
<path opacity="0.5" d="M1 15H15V14H15.4668C15.6494 13.9999 15.8299 13.9635 16 13.8994V16H0V8H1V15ZM15.5742 12.9893L15.4668 13C15.5368 12.9999 15.603 12.9846 15.6641 12.96C15.6351 12.9717 15.6056 12.9828 15.5742 12.9893ZM15.9717 12.4678L15.9707 12.5742C15.9671 12.604 15.9592 12.6324 15.9502 12.6602C15.9696 12.6003 15.9779 12.5357 15.9707 12.4678C15.9593 12.3608 15.944 12.2543 15.9258 12.1484C15.9441 12.2544 15.9603 12.3608 15.9717 12.4678ZM15.5234 10.8701C15.5574 10.9415 15.5898 11.0137 15.6201 11.0869L15.7451 11.4229C15.7785 11.5233 15.8071 11.6253 15.834 11.7275C15.7768 11.5099 15.7056 11.2957 15.6191 11.0869L15.5234 10.8701ZM16 9.68359C15.7795 9.35135 15.5262 9.04095 15.2432 8.75781C15.1644 8.67906 15.0828 8.6034 15 8.5293V1H1V2.06934C0.674527 2.02438 0.345073 2 0.0146484 2C0.00976547 2 0.00488263 1.99999 0 2V0H16V9.68359Z" fill="#66DEFF"/>
<path d="M0.0150146 3C-0.641508 3.00001 -1.29152 3.10371 -1.89807 3.30469C-2.50469 3.5057 -3.05585 3.80045 -3.52014 4.17188C-3.98443 4.54331 -4.35285 4.98442 -4.60413 5.46973C-4.77019 5.79054 -4.88315 6.1265 -4.94064 6.46913C-4.98937 6.75962 -4.7462 7 -4.45165 7H7.48168C7.77623 7 8.02212 6.75323 7.91184 6.4801C7.87814 6.39663 7.83631 6.31454 7.7865 6.23438C7.63574 5.99185 7.41457 5.77158 7.13611 5.58594C6.85764 5.40032 6.52725 5.25283 6.16345 5.15234C5.79948 5.05183 5.40898 5 5.01501 5C4.91088 5 4.80706 5.00388 4.70392 5.01133C4.50296 5.02585 4.30669 4.94077 4.17797 4.78577C3.99508 4.56552 3.785 4.35973 3.55017 4.17188C3.08591 3.80049 2.53467 3.50569 1.9281 3.30469C1.32156 3.10374 0.671509 3 0.0150146 3Z" fill="#66DEFF"/>
<path d="M10.9996 8C11.6562 8 12.3071 8.12959 12.9137 8.38086C13.5202 8.63213 14.0716 9.00066 14.5358 9.46484C14.9999 9.92906 15.3685 10.4804 15.6198 11.0869C15.8027 11.5288 15.9207 11.9939 15.9713 12.4677C16.0026 12.7606 15.7609 13 15.4663 13H3.53297C3.23842 13 2.99485 12.7594 3.04695 12.4695C3.08495 12.2581 3.1456 12.0508 3.22815 11.8516C3.37889 11.4878 3.6001 11.1574 3.87854 10.8789C4.15712 10.6003 4.4882 10.3793 4.85217 10.2285C5.21601 10.0778 5.60584 10 5.99963 10C6.1745 10 6.34865 10.0154 6.52008 10.0457C6.74947 10.0863 6.98852 10.0068 7.13636 9.82677C7.23958 9.70108 7.34905 9.58028 7.46448 9.46484C7.92876 9.00056 8.47993 8.63213 9.08655 8.38086C9.6931 8.12962 10.3431 8.00003 10.9996 8Z" fill="#66DEFF"/>
</g>
<defs>
<clipPath id="clip0_11_293">
<rect width="16" height="16" fill="white"/>
</clipPath>
</defs>
</svg>
