<svg width="16" height="16" viewBox="0 0 16 16" fill="none" xmlns="http://www.w3.org/2000/svg">
<g clip-path="url(#clip0_34_702)">
<path opacity="0.5" d="M16 16H4.63281C4.87764 15.8148 5.10655 15.5953 5.30371 15.3291C5.38144 15.2241 5.45108 15.1139 5.51562 15H15V3.35254C15.2095 3.11623 15.4193 2.88007 15.6289 2.64355C15.7149 2.54653 15.8017 2.44959 15.8877 2.35254C15.9253 2.31011 15.9625 2.26719 16 2.22461V16ZM13.6475 0.112305C13.5504 0.198297 13.4535 0.285082 13.3564 0.371094C13.1198 0.580794 12.8831 0.790301 12.6465 1H1V10.7676C0.387559 11.3168 0.000285039 12.1123 0 12.999V0H13.7744C13.732 0.037372 13.6897 0.0748713 13.6475 0.112305ZM14.6025 0.603516C14.4536 0.735538 14.3044 0.867876 14.1553 1H14.1543C14.3037 0.867575 14.4533 0.734806 14.6025 0.602539V0.603516Z" fill="#C41AE6"/>
<circle cx="3" cy="13" r="2" fill="#C41AE6"/>
<path d="M3 10.9999C4.10313 10.9999 4.99997 11.8961 5 12.9999C5 15.9999 2 15.9999 0 15.9999C0.999972 15 1 14.1038 1 12.9999C1.00003 11.8961 1.89687 10.9999 3 10.9999ZM14.9912 0.294867C15.1831 0.302085 15.3623 0.376029 15.4932 0.506781C15.6238 0.637556 15.6978 0.816978 15.7051 1.00873C15.7118 1.20007 15.6509 1.38999 15.5303 1.53022C15.3451 1.74479 15.1597 1.96018 14.9746 2.17475C12.4016 5.15698 9.82811 8.13974 7.25488 11.122C6.75918 11.6965 5.65671 11.4163 5.12012 10.8798C4.58365 10.3434 4.30455 9.24166 4.87891 8.74604C7.86106 6.17268 10.8429 3.59847 13.8252 1.02534C14.0398 0.840185 14.2551 0.654821 14.4697 0.469671C14.6101 0.348956 14.7997 0.288061 14.9912 0.294867Z" fill="#C41AE6"/>
</g>
<defs>
<clipPath id="clip0_34_702">
<rect width="16" height="16" fill="white"/>
</clipPath>
</defs>
</svg>
