<svg width="16" height="16" viewBox="0 0 16 16" fill="none" xmlns="http://www.w3.org/2000/svg">
<g clip-path="url(#clip0_2_52)">
<path opacity="0.5" d="M0 12.1211C0.281813 12.6671 0.616851 13.1806 1 13.6543V15H2.34473C2.81841 15.3832 3.33203 15.7182 3.87793 16H0V12.1211ZM11.873 15C10.7253 15.6364 9.40533 16 8 16C6.59467 16 5.27468 15.6364 4.12695 15H11.873ZM16 16H12.1221C12.668 15.7182 13.1816 15.3832 13.6553 15H15V13.6543C15.3831 13.1806 15.7182 12.6671 16 12.1211V16ZM1 11.8721C0.363873 10.7245 0 9.40502 0 8C0 6.59467 0.363616 5.27468 1 4.12695V11.8721ZM15 4.12695C15.6364 5.27468 16 6.59467 16 8C16 9.40502 15.6361 10.7245 15 11.8721V4.12695ZM3.87793 0C3.33203 0.281849 2.81841 0.616833 2.34473 1H1V2.34473C0.616833 2.81841 0.281849 3.33203 0 3.87793V0H3.87793ZM16 3.87793C15.7182 3.33203 15.3832 2.81841 15 2.34473V1H13.6553C13.1816 0.616833 12.668 0.281849 12.1221 0H16V3.87793ZM8 0C9.40533 0 10.7253 0.363616 11.873 1H4.12695C5.27468 0.363616 6.59467 0 8 0Z" fill="#FF661A"/>
<path d="M8 0C12.4183 0 16 3.58172 16 8C16 12.4183 12.4183 16 8 16C3.58172 16 0 12.4183 0 8C0 3.58172 3.58172 0 8 0ZM2.08984 6.96582C2.03145 7.30184 2 7.64728 2 8C2 11.0596 4.29041 13.582 7.25 13.9512V10.9014C5.95658 10.568 5 9.39752 5 8C5 7.95385 5.00087 7.90794 5.00293 7.8623L2.08984 6.96582ZM10.9961 7.86133C10.9982 7.9073 11 7.95351 11 8C11 9.39752 10.0434 10.568 8.75 10.9014V13.9512C11.7096 13.582 14 11.0596 14 8C14 7.64722 13.9676 7.30189 13.9092 6.96582L10.9961 7.86133ZM8 7C7.44772 7 7 7.44772 7 8C7 8.55228 7.44772 9 8 9C8.55228 9 9 8.55228 9 8C9 7.44772 8.55228 7 8 7ZM8 2C5.56606 2 3.47137 3.44959 2.53027 5.53223L5.44727 6.42871C5.97554 5.5723 6.9199 5 8 5C9.07992 5 10.0234 5.57254 10.5518 6.42871L13.4688 5.53223C12.5276 3.44978 10.4338 2 8 2Z" fill="#FF661A"/>
</g>
<defs>
<clipPath id="clip0_2_52">
<rect width="16" height="16" fill="white"/>
</clipPath>
</defs>
</svg>
