<svg width="16" height="16" viewBox="0 0 16 16" fill="none" xmlns="http://www.w3.org/2000/svg">
<g clip-path="url(#clip0_38_734)">
<path opacity="0.5" d="M16 16H2.49414L3.60547 15H15V4H15.4141L16 3.41406V16ZM12 0.585938V1H1V12.3936L0 13.5049V0H12.5859L12 0.585938Z" fill="#3399FF"/>
<path d="M0 15L6.7435e-07 16H1.00003L11 7L12 8L12 9H14V7H13L11.5 5.49999L14 2.99999H15L16 1.99999V-7.62939e-06H14L13 0.999992L13 2.05024L10.5 4.49999L9.00003 3V2L7.00003 1.99999V4L8.00003 3.99999L9.00003 5L0 15Z" fill="#3399FF"/>
</g>
<defs>
<clipPath id="clip0_38_734">
<rect width="16" height="16" fill="white"/>
</clipPath>
</defs>
</svg>
